<mxfile host="app.diagrams.net" agent="Mozilla/5.0 (Macintosh; Intel Mac OS X 10_15_7) AppleWebKit/605.1.15 (KHTML, like Gecko) Version/17.5 Safari/605.1.15" version="24.7.5">
  <diagram name="Page-1" id="5kNetyspYmfxLecHSdiX">
    <mxGraphModel dx="954" dy="647" grid="1" gridSize="10" guides="1" tooltips="1" connect="1" arrows="1" fold="1" page="1" pageScale="1" pageWidth="827" pageHeight="1169" math="0" shadow="0">
      <root>
        <mxCell id="0" />
        <mxCell id="1" parent="0" />
        <mxCell id="S0Dyq1XGVSe3hS3X8ZzL-8" value="" style="rounded=0;whiteSpace=wrap;html=1;" parent="1" vertex="1">
          <mxGeometry x="20" width="790" height="130" as="geometry" />
        </mxCell>
        <mxCell id="S0Dyq1XGVSe3hS3X8ZzL-1" value="&lt;p style=&quot;margin:0px;margin-top:4px;text-align:center;&quot;&gt;&lt;b&gt;IWindow&lt;/b&gt;&lt;/p&gt;&lt;hr size=&quot;1&quot; style=&quot;border-style:solid;&quot;&gt;&lt;p style=&quot;margin:0px;margin-left:4px;&quot;&gt;+ CreateWindow(): void = 0&lt;/p&gt;&lt;p style=&quot;margin:0px;margin-left:4px;&quot;&gt;&lt;font color=&quot;#ff8000&quot;&gt;+ DestroyWindow(): void ???&lt;/font&gt;&lt;/p&gt;&lt;p style=&quot;margin:0px;margin-left:4px;&quot;&gt;&lt;font color=&quot;#ff8000&quot;&gt;&lt;br&gt;&lt;/font&gt;&lt;/p&gt;&lt;p style=&quot;margin:0px;margin-left:4px;&quot;&gt;+ HandleEvent(): void = 0&lt;/p&gt;&lt;p style=&quot;margin:0px;margin-left:4px;&quot;&gt;&lt;font color=&quot;#ff8000&quot;&gt;+ OnPressKey(): void ???&lt;/font&gt;&lt;/p&gt;&lt;p style=&quot;margin:0px;margin-left:4px;&quot;&gt;&amp;nbsp;&lt;/p&gt;&lt;p style=&quot;margin:0px;margin-left:4px;&quot;&gt;+ GetHeight(): int = 0&lt;/p&gt;&lt;p style=&quot;margin:0px;margin-left:4px;&quot;&gt;+ GetWidth(): int = 0&lt;/p&gt;" style="verticalAlign=top;align=left;overflow=fill;html=1;whiteSpace=wrap;" parent="1" vertex="1">
          <mxGeometry x="30" y="190" width="160" height="150" as="geometry" />
        </mxCell>
        <mxCell id="S0Dyq1XGVSe3hS3X8ZzL-5" style="edgeStyle=orthogonalEdgeStyle;rounded=0;orthogonalLoop=1;jettySize=auto;html=1;entryX=0.5;entryY=0;entryDx=0;entryDy=0;endArrow=block;endFill=0;" parent="1" source="S0Dyq1XGVSe3hS3X8ZzL-2" target="S0Dyq1XGVSe3hS3X8ZzL-1" edge="1">
          <mxGeometry relative="1" as="geometry" />
        </mxCell>
        <mxCell id="S0Dyq1XGVSe3hS3X8ZzL-2" value="&lt;p style=&quot;margin:0px;margin-top:4px;text-align:center;&quot;&gt;&lt;b&gt;SDLWindow&lt;/b&gt;&lt;/p&gt;&lt;hr size=&quot;1&quot; style=&quot;border-style:solid;&quot;&gt;&lt;p style=&quot;margin:0px;margin-left:4px;&quot;&gt;+ _window: SDL_Window*&lt;/p&gt;&lt;hr size=&quot;1&quot; style=&quot;border-style:solid;&quot;&gt;&lt;p style=&quot;margin:0px;margin-left:4px;&quot;&gt;+ override all methods()&lt;/p&gt;" style="verticalAlign=top;align=left;overflow=fill;html=1;whiteSpace=wrap;" parent="1" vertex="1">
          <mxGeometry x="30" y="40" width="160" height="80" as="geometry" />
        </mxCell>
        <mxCell id="S0Dyq1XGVSe3hS3X8ZzL-6" value="&lt;p style=&quot;margin:0px;margin-top:4px;text-align:center;&quot;&gt;&lt;b&gt;GameCore&lt;/b&gt;&lt;/p&gt;&lt;hr size=&quot;1&quot; style=&quot;border-style:solid;&quot;&gt;&lt;p style=&quot;margin:0px;margin-left:4px;&quot;&gt;+ WindowManager;&lt;/p&gt;&lt;hr size=&quot;1&quot; style=&quot;border-style:solid;&quot;&gt;&lt;p style=&quot;margin:0px;margin-left:4px;&quot;&gt;+ Init(); // create window, systems&lt;/p&gt;&lt;p style=&quot;margin:0px;margin-left:4px;&quot;&gt;+ PostInit(); // load smth for own game&lt;/p&gt;&lt;p style=&quot;margin:0px;margin-left:4px;&quot;&gt;+ Update(dt);&lt;/p&gt;&lt;p style=&quot;margin:0px;margin-left:4px;&quot;&gt;+ Destroy();&lt;/p&gt;&lt;p style=&quot;margin:0px;margin-left:4px;&quot;&gt;&lt;font color=&quot;#ff8000&quot;&gt;+ Sleep() ???&lt;/font&gt;&lt;/p&gt;" style="verticalAlign=top;align=left;overflow=fill;html=1;whiteSpace=wrap;" parent="1" vertex="1">
          <mxGeometry x="260" y="380" width="236" height="140" as="geometry" />
        </mxCell>
        <mxCell id="9YUIQhJSh96qjaXv536v-18" style="edgeStyle=orthogonalEdgeStyle;rounded=0;orthogonalLoop=1;jettySize=auto;html=1;exitX=1;exitY=0.5;exitDx=0;exitDy=0;entryX=0;entryY=0.5;entryDx=0;entryDy=0;horizontal=1;endArrow=diamond;endFill=1;" edge="1" parent="1" source="S0Dyq1XGVSe3hS3X8ZzL-7" target="9YUIQhJSh96qjaXv536v-17">
          <mxGeometry relative="1" as="geometry" />
        </mxCell>
        <mxCell id="S0Dyq1XGVSe3hS3X8ZzL-7" value="&lt;p style=&quot;margin:0px;margin-top:4px;text-align:center;&quot;&gt;&lt;b&gt;Input&lt;/b&gt;&lt;/p&gt;&lt;hr size=&quot;1&quot; style=&quot;border-style:solid;&quot;&gt;&lt;p style=&quot;margin:0px;margin-left:4px;&quot;&gt;+ _events: std::vector&amp;lt;KeyEvent&amp;gt;&lt;/p&gt;&lt;p style=&quot;margin:0px;margin-left:4px;&quot;&gt;+ _listeningKeys: std::map&amp;lt;KeyCode, name&amp;gt;&lt;/p&gt;&lt;hr size=&quot;1&quot; style=&quot;border-style:solid;&quot;&gt;&lt;p style=&quot;margin:0px;margin-left:4px;&quot;&gt;+ GetEvents();&amp;nbsp;&lt;/p&gt;&lt;p style=&quot;margin:0px;margin-left:4px;&quot;&gt;+ AddInput(KeyCode, State);&lt;/p&gt;&lt;p style=&quot;margin:0px;margin-left:4px;&quot;&gt;+ Update();&amp;nbsp;&lt;/p&gt;" style="verticalAlign=top;align=left;overflow=fill;html=1;whiteSpace=wrap;" parent="1" vertex="1">
          <mxGeometry x="490" y="175" width="271" height="115" as="geometry" />
        </mxCell>
        <mxCell id="S0Dyq1XGVSe3hS3X8ZzL-9" value="SDL" style="text;html=1;align=center;verticalAlign=middle;resizable=0;points=[];autosize=1;strokeColor=none;fillColor=none;" parent="1" vertex="1">
          <mxGeometry x="389" width="50" height="30" as="geometry" />
        </mxCell>
        <mxCell id="9YUIQhJSh96qjaXv536v-4" style="edgeStyle=orthogonalEdgeStyle;rounded=0;orthogonalLoop=1;jettySize=auto;html=1;" edge="1" parent="1" source="9YUIQhJSh96qjaXv536v-2" target="S0Dyq1XGVSe3hS3X8ZzL-8">
          <mxGeometry relative="1" as="geometry" />
        </mxCell>
        <mxCell id="9YUIQhJSh96qjaXv536v-2" value="&lt;b&gt;EngineSettings.h&lt;/b&gt;&lt;div&gt;&lt;b&gt;&lt;br&gt;&lt;/b&gt;&lt;/div&gt;&lt;div&gt;AWindow = SDLWindow;&lt;/div&gt;&lt;div&gt;&lt;b&gt;&lt;br&gt;&lt;/b&gt;&lt;/div&gt;" style="shape=note;whiteSpace=wrap;html=1;backgroundOutline=1;darkOpacity=0.05;align=center;size=27;" vertex="1" parent="1">
          <mxGeometry x="254" y="180" width="160" height="80" as="geometry" />
        </mxCell>
        <mxCell id="9YUIQhJSh96qjaXv536v-8" value="SDLInputKeys.h" style="swimlane;whiteSpace=wrap;html=1;" vertex="1" parent="1">
          <mxGeometry x="525.5" y="50" width="200" height="70" as="geometry">
            <mxRectangle x="660" y="330" width="130" height="30" as="alternateBounds" />
          </mxGeometry>
        </mxCell>
        <mxCell id="9YUIQhJSh96qjaXv536v-10" value="enum KeyCode" style="text;html=1;align=center;verticalAlign=middle;resizable=0;points=[];autosize=1;strokeColor=none;fillColor=none;rotation=0;" vertex="1" parent="9YUIQhJSh96qjaXv536v-8">
          <mxGeometry x="45" y="30" width="110" height="30" as="geometry" />
        </mxCell>
        <mxCell id="9YUIQhJSh96qjaXv536v-17" value="&lt;p style=&quot;margin:0px;margin-top:4px;text-align:center;text-decoration:underline;&quot;&gt;&lt;b&gt;struct: KeyEvent&lt;/b&gt;&lt;/p&gt;&lt;hr size=&quot;1&quot; style=&quot;border-style:solid;&quot;&gt;&lt;p style=&quot;margin:0px;margin-left:8px;&quot;&gt;std::string &amp;nbsp;name;&lt;br&gt;state pressed/released&lt;/p&gt;" style="verticalAlign=top;align=left;overflow=fill;html=1;whiteSpace=wrap;" vertex="1" parent="1">
          <mxGeometry x="800" y="187.5" width="170" height="90" as="geometry" />
        </mxCell>
        <mxCell id="9YUIQhJSh96qjaXv536v-19" style="edgeStyle=orthogonalEdgeStyle;rounded=0;orthogonalLoop=1;jettySize=auto;html=1;entryX=0;entryY=0;entryDx=160;entryDy=53.5;entryPerimeter=0;" edge="1" parent="1" source="S0Dyq1XGVSe3hS3X8ZzL-7" target="9YUIQhJSh96qjaXv536v-2">
          <mxGeometry relative="1" as="geometry" />
        </mxCell>
        <mxCell id="9YUIQhJSh96qjaXv536v-20" value="#Include" style="edgeLabel;html=1;align=center;verticalAlign=middle;resizable=0;points=[];" vertex="1" connectable="0" parent="9YUIQhJSh96qjaXv536v-19">
          <mxGeometry x="0.1347" y="-2" relative="1" as="geometry">
            <mxPoint x="12" y="1" as="offset" />
          </mxGeometry>
        </mxCell>
        <mxCell id="9YUIQhJSh96qjaXv536v-21" value="main Loop" style="shape=trapezoid;perimeter=trapezoidPerimeter;whiteSpace=wrap;html=1;fixedSize=1;" vertex="1" parent="1">
          <mxGeometry x="330" y="540" width="120" height="20" as="geometry" />
        </mxCell>
        <mxCell id="9YUIQhJSh96qjaXv536v-24" value="&lt;font color=&quot;#00cc00&quot;&gt;standard core function only;&lt;/font&gt;&lt;div&gt;&lt;font color=&quot;#00cc00&quot;&gt;know about big systems; not about game;&amp;nbsp;&lt;/font&gt;&lt;/div&gt;&lt;div&gt;&lt;font color=&quot;#00cc00&quot;&gt;it has to start,&amp;nbsp;&lt;/font&gt;&lt;/div&gt;&lt;div&gt;&lt;font color=&quot;#00cc00&quot;&gt;update and correct finish programm and own systems;&amp;nbsp;&lt;/font&gt;&lt;/div&gt;" style="rounded=0;whiteSpace=wrap;html=1;" vertex="1" parent="1">
          <mxGeometry x="460" y="350" width="151" height="100" as="geometry" />
        </mxCell>
        <mxCell id="9YUIQhJSh96qjaXv536v-25" value="WindowManager" style="rounded=0;whiteSpace=wrap;html=1;" vertex="1" parent="1">
          <mxGeometry x="23" y="610" width="154" height="30" as="geometry" />
        </mxCell>
        <mxCell id="9YUIQhJSh96qjaXv536v-27" value="Scene" style="rounded=0;whiteSpace=wrap;html=1;" vertex="1" parent="1">
          <mxGeometry x="200" y="780" width="154" height="30" as="geometry" />
        </mxCell>
        <mxCell id="9YUIQhJSh96qjaXv536v-28" value="Resources" style="rounded=0;whiteSpace=wrap;html=1;" vertex="1" parent="1">
          <mxGeometry x="200" y="730" width="154" height="30" as="geometry" />
        </mxCell>
        <mxCell id="9YUIQhJSh96qjaXv536v-29" value="Saves" style="rounded=0;whiteSpace=wrap;html=1;" vertex="1" parent="1">
          <mxGeometry x="200" y="680" width="154" height="30" as="geometry" />
        </mxCell>
        <mxCell id="9YUIQhJSh96qjaXv536v-30" value="ComponentSystem" style="rounded=0;whiteSpace=wrap;html=1;" vertex="1" parent="1">
          <mxGeometry x="20" y="800" width="154" height="30" as="geometry" />
        </mxCell>
        <mxCell id="9YUIQhJSh96qjaXv536v-31" value="SceneSystem" style="rounded=0;whiteSpace=wrap;html=1;" vertex="1" parent="1">
          <mxGeometry x="20" y="840" width="154" height="30" as="geometry" />
        </mxCell>
        <mxCell id="9YUIQhJSh96qjaXv536v-32" value="ResourceSystem" style="rounded=0;whiteSpace=wrap;html=1;" vertex="1" parent="1">
          <mxGeometry x="20" y="760" width="154" height="30" as="geometry" />
        </mxCell>
        <mxCell id="9YUIQhJSh96qjaXv536v-33" value="RenderSystem" style="rounded=0;whiteSpace=wrap;html=1;" vertex="1" parent="1">
          <mxGeometry x="20" y="720" width="154" height="30" as="geometry" />
        </mxCell>
        <mxCell id="9YUIQhJSh96qjaXv536v-35" value="SaveSystem" style="rounded=0;whiteSpace=wrap;html=1;" vertex="1" parent="1">
          <mxGeometry x="20" y="670" width="154" height="30" as="geometry" />
        </mxCell>
        <mxCell id="9YUIQhJSh96qjaXv536v-46" style="edgeStyle=orthogonalEdgeStyle;rounded=0;orthogonalLoop=1;jettySize=auto;html=1;entryX=0.5;entryY=1;entryDx=0;entryDy=0;endArrow=diamond;endFill=1;" edge="1" parent="1" source="9YUIQhJSh96qjaXv536v-40" target="S0Dyq1XGVSe3hS3X8ZzL-1">
          <mxGeometry relative="1" as="geometry" />
        </mxCell>
        <mxCell id="9YUIQhJSh96qjaXv536v-40" value="WindowManager" style="swimlane;fontStyle=1;align=center;verticalAlign=middle;childLayout=stackLayout;horizontal=1;startSize=29;horizontalStack=0;resizeParent=1;resizeParentMax=0;resizeLast=0;collapsible=0;marginBottom=0;html=1;whiteSpace=wrap;" vertex="1" parent="1">
          <mxGeometry x="30" y="400" width="160" height="150" as="geometry" />
        </mxCell>
        <mxCell id="9YUIQhJSh96qjaXv536v-41" value="_window: Window*&amp;nbsp;" style="text;html=1;strokeColor=none;fillColor=none;align=center;verticalAlign=middle;spacingLeft=4;spacingRight=4;overflow=hidden;rotatable=0;points=[[0,0.5],[1,0.5]];portConstraint=eastwest;whiteSpace=wrap;" vertex="1" parent="9YUIQhJSh96qjaXv536v-40">
          <mxGeometry y="29" width="160" height="25" as="geometry" />
        </mxCell>
        <mxCell id="9YUIQhJSh96qjaXv536v-42" value="+ CreateWindow()&lt;div&gt;+ DestroyWindow()&lt;/div&gt;&lt;div&gt;+ GetWindow()&lt;/div&gt;&lt;div&gt;&lt;font color=&quot;#ff8000&quot;&gt;+ ChangeWindowSize()???&lt;/font&gt;&lt;/div&gt;&lt;div&gt;&lt;font color=&quot;#ff8000&quot;&gt;&lt;br&gt;&lt;/font&gt;&lt;/div&gt;&lt;div&gt;+Update()&lt;/div&gt;" style="text;html=1;strokeColor=default;fillColor=none;align=left;verticalAlign=middle;spacingLeft=4;spacingRight=4;overflow=hidden;rotatable=0;points=[[0,0.5],[1,0.5]];portConstraint=eastwest;whiteSpace=wrap;" vertex="1" parent="9YUIQhJSh96qjaXv536v-40">
          <mxGeometry y="54" width="160" height="96" as="geometry" />
        </mxCell>
        <mxCell id="9YUIQhJSh96qjaXv536v-45" style="edgeStyle=orthogonalEdgeStyle;rounded=0;orthogonalLoop=1;jettySize=auto;html=1;exitX=0;exitY=0.25;exitDx=0;exitDy=0;entryX=1.007;entryY=0.115;entryDx=0;entryDy=0;entryPerimeter=0;endArrow=diamond;endFill=1;" edge="1" parent="1" source="S0Dyq1XGVSe3hS3X8ZzL-6" target="9YUIQhJSh96qjaXv536v-40">
          <mxGeometry relative="1" as="geometry" />
        </mxCell>
        <mxCell id="9YUIQhJSh96qjaXv536v-47" style="edgeStyle=orthogonalEdgeStyle;rounded=0;orthogonalLoop=1;jettySize=auto;html=1;exitX=0.5;exitY=0;exitDx=0;exitDy=0;entryX=0.5;entryY=1;entryDx=0;entryDy=0;entryPerimeter=0;" edge="1" parent="1" source="9YUIQhJSh96qjaXv536v-40" target="9YUIQhJSh96qjaXv536v-2">
          <mxGeometry relative="1" as="geometry">
            <Array as="points">
              <mxPoint x="150" y="400" />
              <mxPoint x="150" y="360" />
              <mxPoint x="334" y="360" />
            </Array>
          </mxGeometry>
        </mxCell>
        <mxCell id="9YUIQhJSh96qjaXv536v-48" value="#Include" style="edgeLabel;html=1;align=center;verticalAlign=middle;resizable=0;points=[];" vertex="1" connectable="0" parent="9YUIQhJSh96qjaXv536v-47">
          <mxGeometry x="-0.044" y="4" relative="1" as="geometry">
            <mxPoint as="offset" />
          </mxGeometry>
        </mxCell>
      </root>
    </mxGraphModel>
  </diagram>
</mxfile>
